# xmcd CD database file
#
# Track frame offsets:
#	150
#	22418
#	43652
#	63022
#	86206
#	106449
#	129053
#	146931
#	165181
#	187313
#	204560
#	224868
#	243768
#	267679
#	284521
#	306057
#
# Disc length: 4359 seconds
#
# Revision: 1
# Processed by: cddbd v1.4PL0 Copyright (c) Steve Scherf et al.
# Submitted via: CDex 1.50Beta7
#
DISCID=fd110510
DTITLE=Eddie Santiago - Serie 32 [CD1)
DYEAR=1900
DGENRE=Salsa
TTITLE0=Lluvia
TTITLE1=Mia
TTITLE2=Una Nueva Opotunidad
TTITLE3=Que Locura Enamorame De Ti
TTITLE4=Insaciable
TTITLE5=Tu Me Quemas
TTITLE6=Hagamosio
TTITLE7=Vida De Amantes
TTITLE8=Todo Empezo
TTITLE9=Odiandote Y Sin Entender
TTITLE10=De Profesion... Tu Amante
TTITLE11=Silencio
TTITLE12=Antidoto Y Veneno
TTITLE13=Me Hiciste Caer
TTITLE14=De Vuelta A Casa
TTITLE15=Todas
EXTD=
EXTT0=
EXTT1=
EXTT2=
EXTT3=
EXTT4=
EXTT5=
EXTT6=
EXTT7=
EXTT8=
EXTT9=
EXTT10=
EXTT11=
EXTT12=
EXTT13=
EXTT14=
EXTT15=
PLAYORDER=
